<svg xmlns="http://www.w3.org/2000/svg" xmlns:xlink="http://www.w3.org/1999/xlink" contentStyleType="text/css" data-diagram-type="CLASS" height="749px" preserveAspectRatio="none" style="width:1319px;height:749px;background:#FFFFFF;" version="1.1" viewBox="0 0 1319 749" width="1319px" zoomAndPan="magnify"><?plantuml 1.2026.7beta1?><defs/><g><g class="title" data-source-line="11"><text fill="#000000" font-family="sans-serif" font-size="14" font-weight="700" lengthAdjust="spacing" textLength="320.3936" x="495.8032" y="22.9951">AutomotiveDealershipAi - Class Diagram</text></g><!--cluster K9-AIF Framework (ABB / OOB)--><g class="cluster" data-qualified-name="K9-AIF Framework .ABB . OOB." data-source-line="13" id="ent0001"><path d="M8.5,43.2969 L219.3535,43.2969 A3.75,3.75 0 0 1 221.8535,45.7969 L228.8535,63.2656 L718.5,63.2656 A2.5,2.5 0 0 1 721,65.7656 L721,442.4869 A2.5,2.5 0 0 1 718.5,444.9869 L8.5,444.9869 A2.5,2.5 0 0 1 6,442.4869 L6,45.7969 A2.5,2.5 0 0 1 8.5,43.2969" fill="#E8F5E9" style="stroke:#CCCCCC;stroke-width:1.5;"/><line style="stroke:#CCCCCC;stroke-width:1.5;" x1="6" x2="228.8535" y1="63.2656" y2="63.2656"/><text fill="#000000" font-family="sans-serif" font-size="12" font-weight="700" lengthAdjust="spacing" textLength="209.8535" x="10" y="56.4355">K9-AIF Framework (ABB / OOB)</text></g><!--cluster AutomotiveDealershipAi Agents--><g class="cluster" data-qualified-name="AutomotiveDealershipAi Agents" data-source-line="47" id="ent0013"><path d="M288.5,477.9869 L505.6406,477.9869 A3.75,3.75 0 0 1 508.1406,480.4869 L515.1406,497.9556 L1301.5,497.9556 A2.5,2.5 0 0 1 1304,500.4556 L1304,627.4569 A2.5,2.5 0 0 1 1301.5,629.9569 L288.5,629.9569 A2.5,2.5 0 0 1 286,627.4569 L286,480.4869 A2.5,2.5 0 0 1 288.5,477.9869" fill="#F5F7FF" style="stroke:#CCCCCC;stroke-width:1.5;"/><line style="stroke:#CCCCCC;stroke-width:1.5;" x1="286" x2="515.1406" y1="497.9556" y2="497.9556"/><text fill="#000000" font-family="sans-serif" font-size="12" font-weight="700" lengthAdjust="spacing" textLength="216.1406" x="290" y="491.1255">AutomotiveDealershipAi Agents</text></g><!--cluster InventorySquad--><g class="cluster" data-qualified-name="AutomotiveDealershipAi Agents.InventorySquad" data-source-line="48" id="ent0014"><path d="M778.5,517.9869 L887.1953,517.9869 A3.75,3.75 0 0 1 889.6953,520.4869 L896.6953,537.9556 L1277.5,537.9556 A2.5,2.5 0 0 1 1280,540.4556 L1280,603.4569 A2.5,2.5 0 0 1 1277.5,605.9569 L778.5,605.9569 A2.5,2.5 0 0 1 776,603.4569 L776,520.4869 A2.5,2.5 0 0 1 778.5,517.9869" fill="#F5F7FF" style="stroke:#CCCCCC;stroke-width:1.5;"/><line style="stroke:#CCCCCC;stroke-width:1.5;" x1="776" x2="896.6953" y1="537.9556" y2="537.9556"/><text fill="#000000" font-family="sans-serif" font-size="12" font-weight="700" lengthAdjust="spacing" textLength="107.6953" x="780" y="531.1255">InventorySquad</text></g><!--cluster PricingSquad--><g class="cluster" data-qualified-name="AutomotiveDealershipAi Agents.PricingSquad" data-source-line="53" id="ent0018"><path d="M312.5,517.9869 L403.1484,517.9869 A3.75,3.75 0 0 1 405.6484,520.4869 L412.6484,537.9556 L749.5,537.9556 A2.5,2.5 0 0 1 752,540.4556 L752,603.4569 A2.5,2.5 0 0 1 749.5,605.9569 L312.5,605.9569 A2.5,2.5 0 0 1 310,603.4569 L310,520.4869 A2.5,2.5 0 0 1 312.5,517.9869" fill="#F5F7FF" style="stroke:#CCCCCC;stroke-width:1.5;"/><line style="stroke:#CCCCCC;stroke-width:1.5;" x1="310" x2="412.6484" y1="537.9556" y2="537.9556"/><text fill="#000000" font-family="sans-serif" font-size="12" font-weight="700" lengthAdjust="spacing" textLength="89.6484" x="314" y="531.1255">PricingSquad</text></g><!--cluster AutomotiveDealershipAi Orchestrators--><g class="cluster" data-qualified-name="AutomotiveDealershipAi Orchestrators" data-source-line="72" id="ent0034"><path d="M870.5,200.1469 L1134.0527,200.1469 A3.75,3.75 0 0 1 1136.5527,202.6469 L1143.5527,220.1156 L1194.5,220.1156 A2.5,2.5 0 0 1 1197,222.6156 L1197,285.6169 A2.5,2.5 0 0 1 1194.5,288.1169 L870.5,288.1169 A2.5,2.5 0 0 1 868,285.6169 L868,202.6469 A2.5,2.5 0 0 1 870.5,200.1469" fill="#F5F7FF" style="stroke:#CCCCCC;stroke-width:1.5;"/><line style="stroke:#CCCCCC;stroke-width:1.5;" x1="868" x2="1143.5527" y1="220.1156" y2="220.1156"/><text fill="#000000" font-family="sans-serif" font-size="12" font-weight="700" lengthAdjust="spacing" textLength="262.5527" x="872" y="213.2855">AutomotiveDealershipAi Orchestrators</text></g><!--class BaseAgent--><g class="entity" data-qualified-name="K9-AIF Framework .ABB . OOB..BaseAgent" data-source-line="14" id="ent0002"><rect fill="#FAFAFA" height="53.9375" rx="2.5" ry="2.5" style="stroke:#AAAAAA;stroke-width:0.5;" width="194.2773" x="21.86" y="75.2969"/><text fill="#000000" font-family="sans-serif" font-size="12" font-style="italic" lengthAdjust="spacing" textLength="64.7402" x="86.6286" y="91.4355">BaseAgent</text><line style="stroke:#AAAAAA;stroke-width:0.5;" x1="22.86" x2="215.1373" y1="99.2656" y2="99.2656"/><line style="stroke:#AAAAAA;stroke-width:0.5;" x1="22.86" x2="215.1373" y1="107.2656" y2="107.2656"/><g data-visibility-modifier="PUBLIC_METHOD"><ellipse cx="32.86" cy="119.75" fill="#84BE84" rx="3" ry="3" style="stroke:#038048;stroke-width:1;"/></g><text fill="#000000" font-family="sans-serif" font-size="12" font-style="italic" lengthAdjust="spacing" textLength="169.2773" x="40.86" y="122.4043">execute(payload: dict) : dict</text></g><!--class BaseValidationLoopAgent--><g class="entity" data-qualified-name="K9-AIF Framework .ABB . OOB..BaseValidationLoopAgent" data-source-line="17" id="ent0003"><rect fill="#FAFAFA" height="123.7813" rx="2.5" ry="2.5" style="stroke:#AAAAAA;stroke-width:0.5;" width="349.3926" x="286.3" y="190.2369"/><text fill="#000000" font-family="sans-serif" font-size="12" font-style="italic" lengthAdjust="spacing" textLength="153.9141" x="384.0393" y="206.3755">BaseValidationLoopAgent</text><line style="stroke:#AAAAAA;stroke-width:0.5;" x1="287.3" x2="634.6926" y1="214.2056" y2="214.2056"/><line style="stroke:#AAAAAA;stroke-width:0.5;" x1="287.3" x2="634.6926" y1="222.2056" y2="222.2056"/><g data-visibility-modifier="PUBLIC_METHOD"><ellipse cx="297.3" cy="234.69" fill="#84BE84" rx="3" ry="3" style="stroke:#038048;stroke-width:1;"/></g><text fill="#000000" font-family="sans-serif" font-size="12" lengthAdjust="spacing" textLength="169.2773" x="305.3" y="237.3443">execute(payload: dict) : dict</text><g data-visibility-modifier="PUBLIC_METHOD"><ellipse cx="297.3" cy="248.6587" fill="#84BE84" rx="3" ry="3" style="stroke:#038048;stroke-width:1;"/></g><text fill="#000000" font-family="sans-serif" font-size="12" font-style="italic" lengthAdjust="spacing" textLength="184.9629" x="305.3" y="251.313">generate_hypothesis(loop_ctx)</text><g data-visibility-modifier="PUBLIC_METHOD"><ellipse cx="297.3" cy="262.6275" fill="#84BE84" rx="3" ry="3" style="stroke:#038048;stroke-width:1;"/></g><text fill="#000000" font-family="sans-serif" font-size="12" font-style="italic" lengthAdjust="spacing" textLength="217.4531" x="305.3" y="265.2818">run_validation(hypothesis, loop_ctx)</text><g data-visibility-modifier="PUBLIC_METHOD"><ellipse cx="297.3" cy="276.5962" fill="#84BE84" rx="3" ry="3" style="stroke:#038048;stroke-width:1;"/></g><text fill="#000000" font-family="sans-serif" font-size="12" font-style="italic" lengthAdjust="spacing" textLength="230.4316" x="305.3" y="279.2505">evaluate_observation(result, loop_ctx)</text><g data-visibility-modifier="PUBLIC_METHOD"><ellipse cx="297.3" cy="290.565" fill="#84BE84" rx="3" ry="3" style="stroke:#038048;stroke-width:1;"/></g><text fill="#000000" font-family="sans-serif" font-size="12" font-style="italic" lengthAdjust="spacing" textLength="324.3926" x="305.3" y="293.2193">should_continue(obs, loop_ctx) : ValidationDisposition</text><g data-visibility-modifier="PUBLIC_METHOD"><ellipse cx="297.3" cy="304.5337" fill="#84BE84" rx="3" ry="3" style="stroke:#038048;stroke-width:1;"/></g><text fill="#000000" font-family="sans-serif" font-size="12" font-style="italic" lengthAdjust="spacing" textLength="240.7324" x="305.3" y="307.188">finalize(loop_ctx) : ValidationLoopResult</text></g><!--class K9ValidationLoopAgent--><g class="entity" data-qualified-name="K9-AIF Framework .ABB . OOB..K9ValidationLoopAgent" data-source-line="25" id="ent0004"><rect fill="#FAFAFA" height="39.9688" rx="2.5" ry="2.5" style="stroke:#AAAAAA;stroke-width:0.5;" width="146.1973" x="486.9" y="389.0169"/><text fill="#000000" font-family="sans-serif" font-size="12" lengthAdjust="spacing" textLength="140.1973" x="489.9" y="405.1555">K9ValidationLoopAgent</text><line style="stroke:#AAAAAA;stroke-width:0.5;" x1="487.9" x2="632.0973" y1="412.9856" y2="412.9856"/><line style="stroke:#AAAAAA;stroke-width:0.5;" x1="487.9" x2="632.0973" y1="420.9856" y2="420.9856"/></g><!--class BaseCriticActorAgent--><g class="entity" data-qualified-name="K9-AIF Framework .ABB . OOB..BaseCriticActorAgent" data-source-line="28" id="ent0007"><rect fill="#FAFAFA" height="123.7813" rx="2.5" ry="2.5" style="stroke:#AAAAAA;stroke-width:0.5;" width="229.2227" x="22.39" y="190.2369"/><text fill="#000000" font-family="sans-serif" font-size="12" font-style="italic" lengthAdjust="spacing" textLength="127.8105" x="73.0961" y="206.3755">BaseCriticActorAgent</text><line style="stroke:#AAAAAA;stroke-width:0.5;" x1="23.39" x2="250.6127" y1="214.2056" y2="214.2056"/><line style="stroke:#AAAAAA;stroke-width:0.5;" x1="23.39" x2="250.6127" y1="222.2056" y2="222.2056"/><g data-visibility-modifier="PUBLIC_METHOD"><ellipse cx="33.39" cy="234.69" fill="#84BE84" rx="3" ry="3" style="stroke:#038048;stroke-width:1;"/></g><text fill="#000000" font-family="sans-serif" font-size="12" lengthAdjust="spacing" textLength="169.2773" x="41.39" y="237.3443">execute(payload: dict) : dict</text><g data-visibility-modifier="PUBLIC_METHOD"><ellipse cx="33.39" cy="248.6587" fill="#84BE84" rx="3" ry="3" style="stroke:#038048;stroke-width:1;"/></g><text fill="#000000" font-family="sans-serif" font-size="12" font-style="italic" lengthAdjust="spacing" textLength="82.1309" x="41.39" y="251.313">generate(ctx)</text><g data-visibility-modifier="PUBLIC_METHOD"><ellipse cx="33.39" cy="262.6275" fill="#84BE84" rx="3" ry="3" style="stroke:#038048;stroke-width:1;"/></g><text fill="#000000" font-family="sans-serif" font-size="12" font-style="italic" lengthAdjust="spacing" textLength="143.666" x="41.39" y="265.2818">critique(draft, ctx) : dict</text><g data-visibility-modifier="PUBLIC_METHOD"><ellipse cx="33.39" cy="276.5962" fill="#84BE84" rx="3" ry="3" style="stroke:#038048;stroke-width:1;"/></g><text fill="#000000" font-family="sans-serif" font-size="12" font-style="italic" lengthAdjust="spacing" textLength="161.8477" x="41.39" y="279.2505">refine(draft, feedback, ctx)</text><g data-visibility-modifier="PUBLIC_METHOD"><ellipse cx="33.39" cy="290.565" fill="#84BE84" rx="3" ry="3" style="stroke:#038048;stroke-width:1;"/></g><text fill="#000000" font-family="sans-serif" font-size="12" font-style="italic" lengthAdjust="spacing" textLength="204.2227" x="41.39" y="293.2193">should_accept(critique, ctx) : bool</text><g data-visibility-modifier="PUBLIC_METHOD"><ellipse cx="33.39" cy="304.5337" fill="#84BE84" rx="3" ry="3" style="stroke:#038048;stroke-width:1;"/></g><text fill="#000000" font-family="sans-serif" font-size="12" font-style="italic" lengthAdjust="spacing" textLength="182.9941" x="41.39" y="307.188">finalize(ctx) : CriticActorResult</text></g><!--class K9CriticActorAgent--><g class="entity" data-qualified-name="K9-AIF Framework .ABB . OOB..K9CriticActorAgent" data-source-line="36" id="ent0008"><rect fill="#FAFAFA" height="39.9688" rx="2.5" ry="2.5" style="stroke:#AAAAAA;stroke-width:0.5;" width="120.0938" x="171.95" y="389.0169"/><text fill="#000000" font-family="sans-serif" font-size="12" lengthAdjust="spacing" textLength="114.0938" x="174.95" y="405.1555">K9CriticActorAgent</text><line style="stroke:#AAAAAA;stroke-width:0.5;" x1="172.95" x2="291.0438" y1="412.9856" y2="412.9856"/><line style="stroke:#AAAAAA;stroke-width:0.5;" x1="172.95" x2="291.0438" y1="420.9856" y2="420.9856"/></g><!--class BaseSquad--><g class="entity" data-qualified-name="K9-AIF Framework .ABB . OOB..BaseSquad" data-source-line="39" id="ent0011"><rect fill="#FAFAFA" height="53.9375" rx="2.5" ry="2.5" style="stroke:#AAAAAA;stroke-width:0.5;" width="194.2773" x="250.86" y="75.2969"/><text fill="#000000" font-family="sans-serif" font-size="12" lengthAdjust="spacing" textLength="67.0313" x="314.483" y="91.4355">BaseSquad</text><line style="stroke:#AAAAAA;stroke-width:0.5;" x1="251.86" x2="444.1373" y1="99.2656" y2="99.2656"/><line style="stroke:#AAAAAA;stroke-width:0.5;" x1="251.86" x2="444.1373" y1="107.2656" y2="107.2656"/><g data-visibility-modifier="PUBLIC_METHOD"><ellipse cx="261.86" cy="119.75" fill="#84BE84" rx="3" ry="3" style="stroke:#038048;stroke-width:1;"/></g><text fill="#000000" font-family="sans-serif" font-size="12" lengthAdjust="spacing" textLength="169.2773" x="269.86" y="122.4043">execute(payload: dict) : dict</text></g><!--class BaseOrchestrator--><g class="entity" data-qualified-name="K9-AIF Framework .ABB . OOB..BaseOrchestrator" data-source-line="42" id="ent0012"><rect fill="#FAFAFA" height="53.9375" rx="2.5" ry="2.5" style="stroke:#AAAAAA;stroke-width:0.5;" width="224.9922" x="480.5" y="75.2969"/><text fill="#000000" font-family="sans-serif" font-size="12" font-style="italic" lengthAdjust="spacing" textLength="105.4102" x="540.291" y="91.4355">BaseOrchestrator</text><line style="stroke:#AAAAAA;stroke-width:0.5;" x1="481.5" x2="704.4922" y1="99.2656" y2="99.2656"/><line style="stroke:#AAAAAA;stroke-width:0.5;" x1="481.5" x2="704.4922" y1="107.2656" y2="107.2656"/><g data-visibility-modifier="PUBLIC_METHOD"><ellipse cx="491.5" cy="119.75" fill="#84BE84" rx="3" ry="3" style="stroke:#038048;stroke-width:1;"/></g><text fill="#000000" font-family="sans-serif" font-size="12" font-style="italic" lengthAdjust="spacing" textLength="199.9922" x="499.5" y="122.4043">execute_flow(payload: dict) : dict</text></g><!--class AgingPredictionAgent--><g class="entity" data-qualified-name="AutomotiveDealershipAi Agents.InventorySquad.AgingPredictionAgent" data-source-line="49" id="ent0015"><rect fill="#FAFAFA" height="39.9688" rx="2.5" ry="2.5" style="stroke:#AAAAAA;stroke-width:0.5;" width="135.9902" x="792" y="549.9869"/><text fill="#000000" font-family="sans-serif" font-size="12" lengthAdjust="spacing" textLength="129.9902" x="795" y="566.1255">AgingPredictionAgent</text><line style="stroke:#AAAAAA;stroke-width:0.5;" x1="793" x2="926.9902" y1="573.9556" y2="573.9556"/><line style="stroke:#AAAAAA;stroke-width:0.5;" x1="793" x2="926.9902" y1="581.9556" y2="581.9556"/></g><!--class ShowroomOptimiserAgent--><g class="entity" data-qualified-name="AutomotiveDealershipAi Agents.InventorySquad.ShowroomOptimiserAgent" data-source-line="50" id="ent0016"><rect fill="#FAFAFA" height="39.9688" rx="2.5" ry="2.5" style="stroke:#AAAAAA;stroke-width:0.5;" width="163.8984" x="963.05" y="549.9869"/><text fill="#000000" font-family="sans-serif" font-size="12" lengthAdjust="spacing" textLength="157.8984" x="966.05" y="566.1255">ShowroomOptimiserAgent</text><line style="stroke:#AAAAAA;stroke-width:0.5;" x1="964.05" x2="1125.9484" y1="573.9556" y2="573.9556"/><line style="stroke:#AAAAAA;stroke-width:0.5;" x1="964.05" x2="1125.9484" y1="581.9556" y2="581.9556"/></g><!--class InventorySquad--><g class="entity" data-qualified-name="AutomotiveDealershipAi Agents.InventorySquad.InventorySquad" data-source-line="51" id="ent0017"><rect fill="#FAFAFA" height="39.9688" rx="2.5" ry="2.5" style="stroke:#AAAAAA;stroke-width:0.5;" width="101.127" x="1162.44" y="549.9869"/><text fill="#000000" font-family="sans-serif" font-size="12" lengthAdjust="spacing" textLength="95.127" x="1165.44" y="566.1255">InventorySquad</text><line style="stroke:#AAAAAA;stroke-width:0.5;" x1="1163.44" x2="1262.567" y1="573.9556" y2="573.9556"/><line style="stroke:#AAAAAA;stroke-width:0.5;" x1="1163.44" x2="1262.567" y1="581.9556" y2="581.9556"/></g><!--class MarketPricingAgent--><g class="entity" data-qualified-name="AutomotiveDealershipAi Agents.PricingSquad.MarketPricingAgent" data-source-line="54" id="ent0019"><rect fill="#FAFAFA" height="39.9688" rx="2.5" ry="2.5" style="stroke:#AAAAAA;stroke-width:0.5;" width="123.8555" x="326.07" y="549.9869"/><text fill="#000000" font-family="sans-serif" font-size="12" lengthAdjust="spacing" textLength="117.8555" x="329.07" y="566.1255">MarketPricingAgent</text><line style="stroke:#AAAAAA;stroke-width:0.5;" x1="327.07" x2="448.9255" y1="573.9556" y2="573.9556"/><line style="stroke:#AAAAAA;stroke-width:0.5;" x1="327.07" x2="448.9255" y1="581.9556" y2="581.9556"/></g><!--class PriceValidationAgent--><g class="entity" data-qualified-name="AutomotiveDealershipAi Agents.PricingSquad.PriceValidationAgent" data-source-line="55" id="ent0020"><rect fill="#FAFAFA" height="39.9688" rx="2.5" ry="2.5" style="stroke:#AAAAAA;stroke-width:0.5;" width="131.1914" x="485.4" y="549.9869"/><text fill="#000000" font-family="sans-serif" font-size="12" lengthAdjust="spacing" textLength="125.1914" x="488.4" y="566.1255">PriceValidationAgent</text><line style="stroke:#AAAAAA;stroke-width:0.5;" x1="486.4" x2="615.5914" y1="573.9556" y2="573.9556"/><line style="stroke:#AAAAAA;stroke-width:0.5;" x1="486.4" x2="615.5914" y1="581.9556" y2="581.9556"/></g><!--class PricingSquad--><g class="entity" data-qualified-name="AutomotiveDealershipAi Agents.PricingSquad.PricingSquad" data-source-line="56" id="ent0021"><rect fill="#FAFAFA" height="39.9688" rx="2.5" ry="2.5" style="stroke:#AAAAAA;stroke-width:0.5;" width="84.4688" x="651.77" y="549.9869"/><text fill="#000000" font-family="sans-serif" font-size="12" lengthAdjust="spacing" textLength="78.4688" x="654.77" y="566.1255">PricingSquad</text><line style="stroke:#AAAAAA;stroke-width:0.5;" x1="652.77" x2="735.2388" y1="573.9556" y2="573.9556"/><line style="stroke:#AAAAAA;stroke-width:0.5;" x1="652.77" x2="735.2388" y1="581.9556" y2="581.9556"/></g><!--class InventoryOrchestrator--><g class="entity" data-qualified-name="AutomotiveDealershipAi Orchestrators.InventoryOrchestrator" data-source-line="73" id="ent0035"><rect fill="#FAFAFA" height="39.9688" rx="2.5" ry="2.5" style="stroke:#AAAAAA;stroke-width:0.5;" width="139.5059" x="1041.25" y="232.1469"/><text fill="#000000" font-family="sans-serif" font-size="12" lengthAdjust="spacing" textLength="133.5059" x="1044.25" y="248.2855">InventoryOrchestrator</text><line style="stroke:#AAAAAA;stroke-width:0.5;" x1="1042.25" x2="1179.7559" y1="256.1156" y2="256.1156"/><line style="stroke:#AAAAAA;stroke-width:0.5;" x1="1042.25" x2="1179.7559" y1="264.1156" y2="264.1156"/></g><!--class PricingOrchestrator--><g class="entity" data-qualified-name="AutomotiveDealershipAi Orchestrators.PricingOrchestrator" data-source-line="74" id="ent0036"><rect fill="#FAFAFA" height="39.9688" rx="2.5" ry="2.5" style="stroke:#AAAAAA;stroke-width:0.5;" width="122.8477" x="883.58" y="232.1469"/><text fill="#000000" font-family="sans-serif" font-size="12" lengthAdjust="spacing" textLength="116.8477" x="886.58" y="248.2855">PricingOrchestrator</text><line style="stroke:#AAAAAA;stroke-width:0.5;" x1="884.58" x2="1005.4277" y1="256.1156" y2="256.1156"/><line style="stroke:#AAAAAA;stroke-width:0.5;" x1="884.58" x2="1005.4277" y1="264.1156" y2="264.1156"/></g><!--class InventorySquad--><g class="entity" data-qualified-name="InventorySquad" data-source-line="65" id="ent0026"><rect fill="#FAFAFA" height="39.9688" rx="2.5" ry="2.5" style="stroke:#AAAAAA;stroke-width:0.5;" width="101.127" x="1043.44" y="389.0169"/><text fill="#000000" font-family="sans-serif" font-size="12" lengthAdjust="spacing" textLength="95.127" x="1046.44" y="405.1555">InventorySquad</text><line style="stroke:#AAAAAA;stroke-width:0.5;" x1="1044.44" x2="1143.567" y1="412.9856" y2="412.9856"/><line style="stroke:#AAAAAA;stroke-width:0.5;" x1="1044.44" x2="1143.567" y1="420.9856" y2="420.9856"/></g><!--class PricingSquad--><g class="entity" data-qualified-name="PricingSquad" data-source-line="68" id="ent0030"><rect fill="#FAFAFA" height="39.9688" rx="2.5" ry="2.5" style="stroke:#AAAAAA;stroke-width:0.5;" width="84.4688" x="812.77" y="389.0169"/><text fill="#000000" font-family="sans-serif" font-size="12" lengthAdjust="spacing" textLength="78.4688" x="815.77" y="405.1555">PricingSquad</text><line style="stroke:#AAAAAA;stroke-width:0.5;" x1="813.77" x2="896.2388" y1="412.9856" y2="412.9856"/><line style="stroke:#AAAAAA;stroke-width:0.5;" x1="813.77" x2="896.2388" y1="420.9856" y2="420.9856"/></g><!--reverse link BaseAgent to BaseValidationLoopAgent--><g class="link" data-entity-1="ent0002" data-entity-2="ent0003" data-link-type="extension" data-source-line="26" id="lnk5"><path codeLine="26" d="M196.6636,136.8463 C235.3836,153.5763 270.6,168.8069 319.12,189.7869" fill="none" id="BaseAgent-backto-BaseValidationLoopAgent" style="stroke:#555555;stroke-width:1;"/><polygon fill="none" points="180.14,129.7069,194.2838,142.3542,199.0434,131.3385,180.14,129.7069" style="stroke:#555555;stroke-width:1;stroke-linejoin:miter;stroke-miterlimit:10;"/></g><!--reverse link BaseValidationLoopAgent to K9ValidationLoopAgent--><g class="link" data-entity-1="ent0003" data-entity-2="ent0004" data-link-type="extension" data-source-line="27" id="lnk6"><path codeLine="27" d="M509.824,329.5035 C526.794,356.0535 535.77,370.1069 547.68,388.7269" fill="none" id="BaseValidationLoopAgent-backto-K9ValidationLoopAgent" style="stroke:#555555;stroke-width:1;"/><polygon fill="none" points="500.13,314.3369,504.7685,332.7348,514.8796,326.2721,500.13,314.3369" style="stroke:#555555;stroke-width:1;stroke-linejoin:miter;stroke-miterlimit:10;"/></g><!--reverse link BaseAgent to BaseCriticActorAgent--><g class="link" data-entity-1="ent0002" data-entity-2="ent0007" data-link-type="extension" data-source-line="37" id="lnk9"><path codeLine="37" d="M124.3923,147.5753 C126.4323,164.3553 126.99,168.9269 129.55,189.9469" fill="none" id="BaseAgent-backto-BaseCriticActorAgent" style="stroke:#555555;stroke-width:1;"/><polygon fill="none" points="122.22,129.7069,118.4362,148.2994,130.3485,146.8512,122.22,129.7069" style="stroke:#555555;stroke-width:1;stroke-linejoin:miter;stroke-miterlimit:10;"/></g><!--reverse link BaseCriticActorAgent to K9CriticActorAgent--><g class="link" data-entity-1="ent0007" data-entity-2="ent0008" data-link-type="extension" data-source-line="38" id="lnk10"><path codeLine="38" d="M183.9592,329.6818 C200.2392,356.2318 208.75,370.1069 220.18,388.7269" fill="none" id="BaseCriticActorAgent-backto-K9CriticActorAgent" style="stroke:#555555;stroke-width:1;"/><polygon fill="none" points="174.55,314.3369,178.8443,332.8182,189.0742,326.5454,174.55,314.3369" style="stroke:#555555;stroke-width:1;stroke-linejoin:miter;stroke-miterlimit:10;"/></g><!--reverse link K9ValidationLoopAgent to AgingPredictionAgent--><g class="link" data-entity-1="ent0004" data-entity-2="ent0015" data-link-type="extension" data-source-line="60" id="lnk22"><path codeLine="60" d="M650.7505,429.3197 C687.9205,438.8097 715.38,448.9069 752,469.9869 C789.25,491.4369 824.39,527.6969 843.96,549.8769" fill="none" id="K9ValidationLoopAgent-backto-AgingPredictionAgent" style="stroke:#555555;stroke-width:1;"/><polygon fill="none" points="633.31,424.8669,649.2663,435.1332,652.2348,423.5062,633.31,424.8669" style="stroke:#555555;stroke-width:1;stroke-linejoin:miter;stroke-miterlimit:10;"/></g><!--reverse link BaseAgent to ShowroomOptimiserAgent--><g class="link" data-entity-1="ent0002" data-entity-2="ent0016" data-link-type="extension" data-source-line="61" id="lnk23"><path codeLine="61" d="M234.1576,129.698 C407.3676,155.888 458.58,107.6969 626,159.2369 C769.95,203.5569 673.79,363.5769 795,452.9869 C848.99,492.8169 884.49,441.0169 945,469.9869 C982.9,488.1369 1015.01,526.5769 1032.01,549.8569" fill="none" id="BaseAgent-backto-ShowroomOptimiserAgent" style="stroke:#555555;stroke-width:1;"/><polygon fill="none" points="216.45,126.4669,233.0806,135.6005,235.2347,123.7954,216.45,126.4669" style="stroke:#555555;stroke-width:1;stroke-linejoin:miter;stroke-miterlimit:10;"/></g><!--reverse link K9CriticActorAgent to MarketPricingAgent--><g class="link" data-entity-1="ent0008" data-entity-2="ent0019" data-link-type="extension" data-source-line="62" id="lnk24"><path codeLine="62" d="M263.4254,442.0261 C293.4054,472.5861 339.09,519.1269 369.12,549.7269" fill="none" id="K9CriticActorAgent-backto-MarketPricingAgent" style="stroke:#555555;stroke-width:1;"/><polygon fill="none" points="250.82,429.1769,259.1423,446.2279,267.7085,437.8243,250.82,429.1769" style="stroke:#555555;stroke-width:1;stroke-linejoin:miter;stroke-miterlimit:10;"/></g><!--reverse link BaseAgent to PriceValidationAgent--><g class="link" data-entity-1="ent0002" data-entity-2="ent0020" data-link-type="extension" data-source-line="63" id="lnk25"><path codeLine="63" d="M234.1694,129.6119 C326.8894,146.8819 591.29,118.9169 653,190.2369 C658.7,196.8269 653.94,446.0169 651,452.9869 C646.84,462.8269 641.22,462.1069 634,469.9869 C609.46,496.7769 582.74,529.2969 566.43,549.5769" fill="none" id="BaseAgent-backto-PriceValidationAgent" style="stroke:#555555;stroke-width:1;"/><polygon fill="none" points="216.53,126.0269,232.9744,135.4917,235.3644,123.7321,216.53,126.0269" style="stroke:#555555;stroke-width:1;stroke-linejoin:miter;stroke-miterlimit:10;"/></g><!--reverse link BaseSquad to InventorySquad--><g class="link" data-entity-1="ent0011" data-entity-2="ent0026" data-link-type="extension" data-source-line="65" id="lnk27"><path codeLine="65" d="M463.0854,129.4904 C543.9754,141.9204 1141.58,130.0269 1197,190.2369 C1234.25,230.7169 1219.21,263.6869 1197,314.0169 C1182.78,346.2469 1151.45,372.1969 1127.06,388.5969" fill="none" id="BaseSquad-backto-InventorySquad" style="stroke:#555555;stroke-width:1;"/><polygon fill="none" points="445.38,126.2469,462.0042,135.3922,464.1665,123.5886,445.38,126.2469" style="stroke:#555555;stroke-width:1;stroke-linejoin:miter;stroke-miterlimit:10;"/></g><!--reverse link InventorySquad to AgingPredictionAgent--><g class="link" data-entity-1="ent0026" data-entity-2="ent0015" data-link-type="composition" data-source-line="66" id="lnk28"><path codeLine="66" d="M1031.6462,427.8023 C1001.6362,437.6323 975.33,449.0369 946,469.9869 C914.88,492.2169 887.57,527.8969 872.47,549.8069" fill="none" id="InventorySquad-backto-AgingPredictionAgent" style="stroke:#555555;stroke-width:1;"/><polygon fill="#555555" points="1043.05,424.0669,1036.103,422.1333,1031.6462,427.8023,1038.5932,429.7358,1043.05,424.0669" style="stroke:#555555;stroke-width:1;stroke-linejoin:miter;stroke-miterlimit:10;"/></g><!--reverse link InventorySquad to ShowroomOptimiserAgent--><g class="link" data-entity-1="ent0026" data-entity-2="ent0016" data-link-type="composition" data-source-line="67" id="lnk29"><path codeLine="67" d="M1084.5552,440.6444 C1075.1352,471.2044 1060.36,519.1269 1050.93,549.7269" fill="none" id="InventorySquad-backto-ShowroomOptimiserAgent" style="stroke:#555555;stroke-width:1;"/><polygon fill="#555555" points="1088.09,429.1769,1082.5001,433.7324,1084.5552,440.6444,1090.1451,436.0889,1088.09,429.1769" style="stroke:#555555;stroke-width:1;stroke-linejoin:miter;stroke-miterlimit:10;"/></g><!--reverse link BaseSquad to PricingSquad--><g class="link" data-entity-1="ent0011" data-entity-2="ent0030" data-link-type="extension" data-source-line="68" id="lnk31"><path codeLine="68" d="M463.0837,129.4833 C534.2837,140.7833 730.7,112.9969 786,159.2369 C856.14,217.8869 858.31,341.0369 856.3,388.6369" fill="none" id="BaseSquad-backto-PricingSquad" style="stroke:#555555;stroke-width:1;"/><polygon fill="none" points="445.39,126.1769,461.9816,135.3812,464.1859,123.5854,445.39,126.1769" style="stroke:#555555;stroke-width:1;stroke-linejoin:miter;stroke-miterlimit:10;"/></g><!--reverse link PricingSquad to MarketPricingAgent--><g class="link" data-entity-1="ent0030" data-entity-2="ent0019" data-link-type="composition" data-source-line="69" id="lnk32"><path codeLine="69" d="M801.2544,430.6355 C775.2444,440.0355 752.32,447.0069 721,452.9869 C665.65,463.5569 518.01,444.0169 468,469.9869 C434.27,487.5069 409.75,526.1669 397.29,549.6569" fill="none" id="PricingSquad-backto-MarketPricingAgent" style="stroke:#555555;stroke-width:1;"/><polygon fill="#555555" points="812.54,426.5569,805.5377,424.8343,801.2544,430.6355,808.2567,432.3581,812.54,426.5569" style="stroke:#555555;stroke-width:1;stroke-linejoin:miter;stroke-miterlimit:10;"/></g><!--reverse link PricingSquad to PriceValidationAgent--><g class="link" data-entity-1="ent0030" data-entity-2="ent0020" data-link-type="composition" data-source-line="70" id="lnk33"><path codeLine="70" d="M828.5107,437.8463 C816.4507,449.5563 808.1,455.1169 790,461.9869 C757.55,474.3069 665.07,454.5069 634,469.9869 C599.47,487.1869 573.87,525.9569 560.79,549.5469" fill="none" id="PricingSquad-backto-PriceValidationAgent" style="stroke:#555555;stroke-width:1;"/><polygon fill="#555555" points="837.12,429.4869,830.0289,430.7968,828.5107,437.8463,835.6018,436.5364,837.12,429.4869" style="stroke:#555555;stroke-width:1;stroke-linejoin:miter;stroke-miterlimit:10;"/></g><!--reverse link BaseOrchestrator to InventoryOrchestrator--><g class="link" data-entity-1="ent0012" data-entity-2="ent0035" data-link-type="extension" data-source-line="77" id="lnk37"><path codeLine="77" d="M723.7749,114.8455 C813.1249,125.4355 921.6,145.2969 1024,190.2369 C1047.97,200.7569 1072.12,218.3469 1088.87,231.9169" fill="none" id="BaseOrchestrator-backto-InventoryOrchestrator" style="stroke:#555555;stroke-width:1;"/><polygon fill="none" points="705.9,112.7269,723.0687,120.8038,724.4811,108.8872,705.9,112.7269" style="stroke:#555555;stroke-width:1;stroke-linejoin:miter;stroke-miterlimit:10;"/></g><!--link InventoryOrchestrator to InventorySquad--><g class="link" data-entity-1="ent0035" data-entity-2="ent0026" data-link-type="dependency" data-source-line="78" id="lnk38"><path codeLine="78" d="M1108.88,272.4269 C1105.61,302.2669 1099.8957,354.2867 1096.6357,383.9767" fill="none" id="InventoryOrchestrator-to-InventorySquad" style="stroke:#555555;stroke-width:1;stroke-dasharray:7,7;"/><polygon fill="#555555" points="1096.09,388.9469,1101.0484,380.4372,1096.6357,383.9767,1093.0962,379.5641,1096.09,388.9469" style="stroke:#555555;stroke-width:1;stroke-linejoin:miter;stroke-miterlimit:10;"/><text fill="#000000" font-family="sans-serif" font-size="12" lengthAdjust="spacing" textLength="31.8984" x="1101" y="356.1555">loads</text></g><!--reverse link BaseOrchestrator to PricingOrchestrator--><g class="link" data-entity-1="ent0012" data-entity-2="ent0036" data-link-type="extension" data-source-line="79" id="lnk39"><path codeLine="79" d="M723.559,114.9451 C772.429,122.4951 811.05,133.6569 857,159.2369 C889.04,177.0769 916.53,210.4169 931.9,231.6569" fill="none" id="BaseOrchestrator-backto-PricingOrchestrator" style="stroke:#555555;stroke-width:1;"/><polygon fill="none" points="705.77,112.1969,722.6429,120.8748,724.475,109.0155,705.77,112.1969" style="stroke:#555555;stroke-width:1;stroke-linejoin:miter;stroke-miterlimit:10;"/></g><!--link PricingOrchestrator to PricingSquad--><g class="link" data-entity-1="ent0036" data-entity-2="ent0030" data-link-type="dependency" data-source-line="80" id="lnk40"><path codeLine="80" d="M933.78,272.4269 C916.44,302.2669 885.8418,354.9336 868.5918,384.6236" fill="none" id="PricingOrchestrator-to-PricingSquad" style="stroke:#555555;stroke-width:1;stroke-dasharray:7,7;"/><polygon fill="#555555" points="866.08,388.9469,874.0599,383.1745,868.5918,384.6236,867.1427,379.1555,866.08,388.9469" style="stroke:#555555;stroke-width:1;stroke-linejoin:miter;stroke-miterlimit:10;"/><text fill="#000000" font-family="sans-serif" font-size="12" lengthAdjust="spacing" textLength="31.8984" x="892" y="356.1555">loads</text></g><g class="legend" data-source-line="82"><rect fill="#DDDDDD" height="79.1875" rx="7.5" ry="7.5" style="stroke:#000000;stroke-width:1;" width="248.0137" x="1051.9863" y="650.9569"/><text fill="#000000" font-family="sans-serif" font-size="14" font-weight="700" lengthAdjust="spacing" textLength="68.5508" x="1061.8604" y="670.952">Notation</text><text fill="#000000" font-family="sans-serif" font-size="14" font-weight="700" lengthAdjust="spacing" textLength="67.6279" x="1140.1592" y="670.952">Meaning</text><text fill="#000000" font-family="sans-serif" font-size="14" lengthAdjust="spacing" textLength="27.624" x="1061.4365" y="687.2489">&#9472;&#9472;&#9655;</text><text fill="#000000" font-family="sans-serif" font-size="14" lengthAdjust="spacing" textLength="150.8145" x="1139.7354" y="687.2489">Inheritance (extends)</text><text fill="#000000" font-family="sans-serif" font-size="14" lengthAdjust="spacing" textLength="27.624" x="1061.4365" y="703.5457">&#9472;&#9472;&#9670;</text><text fill="#000000" font-family="sans-serif" font-size="14" lengthAdjust="spacing" textLength="138.9883" x="1139.7354" y="703.5457">Composition (owns)</text><text fill="#000000" font-family="sans-serif" font-size="14" lengthAdjust="spacing" textLength="28.5879" x="1061.4365" y="719.8426">&#9548;&#9548;&gt;</text><text fill="#000000" font-family="sans-serif" font-size="14" lengthAdjust="spacing" textLength="135.5703" x="1139.7354" y="719.8426">Dependency (uses)</text><line style="stroke:#000000;stroke-width:1;" x1="1056.9863" x2="1295" y1="657.9569" y2="657.9569"/><line style="stroke:#000000;stroke-width:1;" x1="1056.9863" x2="1295" y1="674.2538" y2="674.2538"/><line style="stroke:#000000;stroke-width:1;" x1="1056.9863" x2="1295" y1="690.5506" y2="690.5506"/><line style="stroke:#000000;stroke-width:1;" x1="1056.9863" x2="1295" y1="706.8475" y2="706.8475"/><line style="stroke:#000000;stroke-width:1;" x1="1056.9863" x2="1295" y1="723.1444" y2="723.1444"/><line style="stroke:#000000;stroke-width:1;" x1="1056.9863" x2="1056.9863" y1="657.9569" y2="723.1444"/><line style="stroke:#000000;stroke-width:1;" x1="1135.2852" x2="1135.2852" y1="657.9569" y2="723.1444"/><line style="stroke:#000000;stroke-width:1;" x1="1295" x2="1295" y1="657.9569" y2="723.1444"/></g><?plantuml-src hLRDRjD04BxxAKRf0HTe4KWL544b9sqGAYKLbRX6c_KaMSNnkhlh_BI9n8aJHtuUXVVXIHZ_9RQpJZdWH8gpyyqtCz_CE7a4xp14nGpwC5Z2v7G1DoRsXJnExe-PS1mz4M7459i23vZMRSOd8oNZqE_8G2euw7h9QmScbOygXtZfLO9uIibvRZn9hvBncYAm4LOOEkbb0UraSz9zsUsMW3uEMHoOhWpDZRX3UFx26GiVWGl50tGS8qo0uCL6JgKHCpn75g3IOn5v0ewWanG3vuADYCnneYmij2vFZxptNUZIASwbce3hjTlm37gzzc4B3YvUTKykJk7U0M03RHJZ9jC5saoZDyBGf4Q09t1V8DQ02-InGJTYoq0o_pNuWfj3o3u9lhRpVMQ1y9aHClmWPLHbVuYobi4e7uV-U1b9CqOjj1iGQP-RnU4kNCLXVxQ9xcwTdi8UBoINE0aY1nhLBFDLgAbFU_tqMCQ1t-VKIn76w99x2KyrROKu5pgIMYItkpn34HBm3bsxRoBYfpIRNF9CwSjJYyvatNRqpUhegAaXET3MgjIjYTtIxewYkhZ7ZLJ_fTUkNMsUXBabcNt5XjION2Sxbq8ITGCT8le3MfNCgR6HZ7ECZ5i4seGOI1diwLgEAibWxLPT9dkh6b0x6kTDii2tZRcvZPd_pzreMEQUuhH1T4eXzZmZ-iD0plTmhqiFguQdMrg0RgL1DjZtuOnEfLgcnRJo3BBql948HzSAao0qfeK0XVbcBETAocalCc8gQBFhW2ftBi4cyhKIdFWjSQ-Ocg39xNNIvBYqLZPpmLe8OzsrhCFM4cjZqr3dxd1aS4lsDK9h2Svseb9GJRpgLtZSbBi5rv1_BLv5kFANbCDIr0x6NjP3KrcU_tmuQzDJHZYrFbTiwqp4oaPLjQp0hQTmV7nMqvxMB5awtK1koyHobX9ND2jedG19Alf39Wqf14gCniPPlOMFqgH20jrV8Gl94LRE2lvy_vAyV_w65MKwHff25d845nU6UFHX6VNhAw4wSbhyEe8hvs41-V6DtcS4ECU8F37aIt1ZZQcT3hB4_W80?></g></svg>