<svg xmlns="http://www.w3.org/2000/svg" xmlns:xlink="http://www.w3.org/1999/xlink" contentStyleType="text/css" data-diagram-type="CLASS" height="749px" preserveAspectRatio="none" style="width:1435px;height:749px;background:#FFFFFF;" version="1.1" viewBox="0 0 1435 749" width="1435px" zoomAndPan="magnify"><?plantuml 1.2026.7beta1?><defs/><g><g class="title" data-source-line="11"><text fill="#000000" font-family="sans-serif" font-size="14" font-weight="700" lengthAdjust="spacing" textLength="301.7314" x="563.1343" y="22.9951">DocumentIntelligence - Class Diagram</text></g><!--cluster K9-AIF Framework (ABB / OOB)--><g class="cluster" data-qualified-name="K9-AIF Framework .ABB . OOB." data-source-line="13" id="ent0001"><path d="M8.5,43.2969 L219.3535,43.2969 A3.75,3.75 0 0 1 221.8535,45.7969 L228.8535,63.2656 L718.5,63.2656 A2.5,2.5 0 0 1 721,65.7656 L721,442.4869 A2.5,2.5 0 0 1 718.5,444.9869 L8.5,444.9869 A2.5,2.5 0 0 1 6,442.4869 L6,45.7969 A2.5,2.5 0 0 1 8.5,43.2969" fill="#E8F5E9" style="stroke:#CCCCCC;stroke-width:1.5;"/><line style="stroke:#CCCCCC;stroke-width:1.5;" x1="6" x2="228.8535" y1="63.2656" y2="63.2656"/><text fill="#000000" font-family="sans-serif" font-size="12" font-weight="700" lengthAdjust="spacing" textLength="209.8535" x="10" y="56.4355">K9-AIF Framework (ABB / OOB)</text></g><!--cluster DocumentIntelligence Agents--><g class="cluster" data-qualified-name="DocumentIntelligence Agents" data-source-line="47" id="ent0013"><path d="M369.5,477.9869 L570.6445,477.9869 A3.75,3.75 0 0 1 573.1445,480.4869 L580.1445,497.9556 L1417.5,497.9556 A2.5,2.5 0 0 1 1420,500.4556 L1420,627.4569 A2.5,2.5 0 0 1 1417.5,629.9569 L369.5,629.9569 A2.5,2.5 0 0 1 367,627.4569 L367,480.4869 A2.5,2.5 0 0 1 369.5,477.9869" fill="#F5F7FF" style="stroke:#CCCCCC;stroke-width:1.5;"/><line style="stroke:#CCCCCC;stroke-width:1.5;" x1="367" x2="580.1445" y1="497.9556" y2="497.9556"/><text fill="#000000" font-family="sans-serif" font-size="12" font-weight="700" lengthAdjust="spacing" textLength="200.1445" x="371" y="491.1255">DocumentIntelligence Agents</text></g><!--cluster ExtractionSquad--><g class="cluster" data-qualified-name="DocumentIntelligence Agents.ExtractionSquad" data-source-line="48" id="ent0014"><path d="M393.5,517.9869 L506.4023,517.9869 A3.75,3.75 0 0 1 508.9023,520.4869 L515.9023,537.9556 L880.5,537.9556 A2.5,2.5 0 0 1 883,540.4556 L883,603.4569 A2.5,2.5 0 0 1 880.5,605.9569 L393.5,605.9569 A2.5,2.5 0 0 1 391,603.4569 L391,520.4869 A2.5,2.5 0 0 1 393.5,517.9869" fill="#F5F7FF" style="stroke:#CCCCCC;stroke-width:1.5;"/><line style="stroke:#CCCCCC;stroke-width:1.5;" x1="391" x2="515.9023" y1="537.9556" y2="537.9556"/><text fill="#000000" font-family="sans-serif" font-size="12" font-weight="700" lengthAdjust="spacing" textLength="111.9023" x="395" y="531.1255">ExtractionSquad</text></g><!--cluster ValidationSquad--><g class="cluster" data-qualified-name="DocumentIntelligence Agents.ValidationSquad" data-source-line="53" id="ent0018"><path d="M909.5,517.9869 L1021.8984,517.9869 A3.75,3.75 0 0 1 1024.3984,520.4869 L1031.3984,537.9556 L1393.5,537.9556 A2.5,2.5 0 0 1 1396,540.4556 L1396,603.4569 A2.5,2.5 0 0 1 1393.5,605.9569 L909.5,605.9569 A2.5,2.5 0 0 1 907,603.4569 L907,520.4869 A2.5,2.5 0 0 1 909.5,517.9869" fill="#F5F7FF" style="stroke:#CCCCCC;stroke-width:1.5;"/><line style="stroke:#CCCCCC;stroke-width:1.5;" x1="907" x2="1031.3984" y1="537.9556" y2="537.9556"/><text fill="#000000" font-family="sans-serif" font-size="12" font-weight="700" lengthAdjust="spacing" textLength="111.3984" x="911" y="531.1255">ValidationSquad</text></g><!--cluster DocumentIntelligence Orchestrators--><g class="cluster" data-qualified-name="DocumentIntelligence Orchestrators" data-source-line="72" id="ent0034"><path d="M799.5,200.1469 L1047.0566,200.1469 A3.75,3.75 0 0 1 1049.5566,202.6469 L1056.5566,220.1156 L1147.5,220.1156 A2.5,2.5 0 0 1 1150,222.6156 L1150,285.6169 A2.5,2.5 0 0 1 1147.5,288.1169 L799.5,288.1169 A2.5,2.5 0 0 1 797,285.6169 L797,202.6469 A2.5,2.5 0 0 1 799.5,200.1469" fill="#F5F7FF" style="stroke:#CCCCCC;stroke-width:1.5;"/><line style="stroke:#CCCCCC;stroke-width:1.5;" x1="797" x2="1056.5566" y1="220.1156" y2="220.1156"/><text fill="#000000" font-family="sans-serif" font-size="12" font-weight="700" lengthAdjust="spacing" textLength="246.5566" x="801" y="213.2855">DocumentIntelligence Orchestrators</text></g><!--class BaseAgent--><g class="entity" data-qualified-name="K9-AIF Framework .ABB . OOB..BaseAgent" data-source-line="14" id="ent0002"><rect fill="#FAFAFA" height="53.9375" rx="2.5" ry="2.5" style="stroke:#AAAAAA;stroke-width:0.5;" width="194.2773" x="21.86" y="75.2969"/><text fill="#000000" font-family="sans-serif" font-size="12" font-style="italic" lengthAdjust="spacing" textLength="64.7402" x="86.6286" y="91.4355">BaseAgent</text><line style="stroke:#AAAAAA;stroke-width:0.5;" x1="22.86" x2="215.1373" y1="99.2656" y2="99.2656"/><line style="stroke:#AAAAAA;stroke-width:0.5;" x1="22.86" x2="215.1373" y1="107.2656" y2="107.2656"/><g data-visibility-modifier="PUBLIC_METHOD"><ellipse cx="32.86" cy="119.75" fill="#84BE84" rx="3" ry="3" style="stroke:#038048;stroke-width:1;"/></g><text fill="#000000" font-family="sans-serif" font-size="12" font-style="italic" lengthAdjust="spacing" textLength="169.2773" x="40.86" y="122.4043">execute(payload: dict) : dict</text></g><!--class BaseValidationLoopAgent--><g class="entity" data-qualified-name="K9-AIF Framework .ABB . OOB..BaseValidationLoopAgent" data-source-line="17" id="ent0003"><rect fill="#FAFAFA" height="123.7813" rx="2.5" ry="2.5" style="stroke:#AAAAAA;stroke-width:0.5;" width="349.3926" x="22.3" y="190.2369"/><text fill="#000000" font-family="sans-serif" font-size="12" font-style="italic" lengthAdjust="spacing" textLength="153.9141" x="120.0393" y="206.3755">BaseValidationLoopAgent</text><line style="stroke:#AAAAAA;stroke-width:0.5;" x1="23.3" x2="370.6926" y1="214.2056" y2="214.2056"/><line style="stroke:#AAAAAA;stroke-width:0.5;" x1="23.3" x2="370.6926" y1="222.2056" y2="222.2056"/><g data-visibility-modifier="PUBLIC_METHOD"><ellipse cx="33.3" cy="234.69" fill="#84BE84" rx="3" ry="3" style="stroke:#038048;stroke-width:1;"/></g><text fill="#000000" font-family="sans-serif" font-size="12" lengthAdjust="spacing" textLength="169.2773" x="41.3" y="237.3443">execute(payload: dict) : dict</text><g data-visibility-modifier="PUBLIC_METHOD"><ellipse cx="33.3" cy="248.6587" fill="#84BE84" rx="3" ry="3" style="stroke:#038048;stroke-width:1;"/></g><text fill="#000000" font-family="sans-serif" font-size="12" font-style="italic" lengthAdjust="spacing" textLength="184.9629" x="41.3" y="251.313">generate_hypothesis(loop_ctx)</text><g data-visibility-modifier="PUBLIC_METHOD"><ellipse cx="33.3" cy="262.6275" fill="#84BE84" rx="3" ry="3" style="stroke:#038048;stroke-width:1;"/></g><text fill="#000000" font-family="sans-serif" font-size="12" font-style="italic" lengthAdjust="spacing" textLength="217.4531" x="41.3" y="265.2818">run_validation(hypothesis, loop_ctx)</text><g data-visibility-modifier="PUBLIC_METHOD"><ellipse cx="33.3" cy="276.5962" fill="#84BE84" rx="3" ry="3" style="stroke:#038048;stroke-width:1;"/></g><text fill="#000000" font-family="sans-serif" font-size="12" font-style="italic" lengthAdjust="spacing" textLength="230.4316" x="41.3" y="279.2505">evaluate_observation(result, loop_ctx)</text><g data-visibility-modifier="PUBLIC_METHOD"><ellipse cx="33.3" cy="290.565" fill="#84BE84" rx="3" ry="3" style="stroke:#038048;stroke-width:1;"/></g><text fill="#000000" font-family="sans-serif" font-size="12" font-style="italic" lengthAdjust="spacing" textLength="324.3926" x="41.3" y="293.2193">should_continue(obs, loop_ctx) : ValidationDisposition</text><g data-visibility-modifier="PUBLIC_METHOD"><ellipse cx="33.3" cy="304.5337" fill="#84BE84" rx="3" ry="3" style="stroke:#038048;stroke-width:1;"/></g><text fill="#000000" font-family="sans-serif" font-size="12" font-style="italic" lengthAdjust="spacing" textLength="240.7324" x="41.3" y="307.188">finalize(loop_ctx) : ValidationLoopResult</text></g><!--class K9ValidationLoopAgent--><g class="entity" data-qualified-name="K9-AIF Framework .ABB . OOB..K9ValidationLoopAgent" data-source-line="25" id="ent0004"><rect fill="#FAFAFA" height="39.9688" rx="2.5" ry="2.5" style="stroke:#AAAAAA;stroke-width:0.5;" width="146.1973" x="334.9" y="389.0169"/><text fill="#000000" font-family="sans-serif" font-size="12" lengthAdjust="spacing" textLength="140.1973" x="337.9" y="405.1555">K9ValidationLoopAgent</text><line style="stroke:#AAAAAA;stroke-width:0.5;" x1="335.9" x2="480.0973" y1="412.9856" y2="412.9856"/><line style="stroke:#AAAAAA;stroke-width:0.5;" x1="335.9" x2="480.0973" y1="420.9856" y2="420.9856"/></g><!--class BaseCriticActorAgent--><g class="entity" data-qualified-name="K9-AIF Framework .ABB . OOB..BaseCriticActorAgent" data-source-line="28" id="ent0007"><rect fill="#FAFAFA" height="123.7813" rx="2.5" ry="2.5" style="stroke:#AAAAAA;stroke-width:0.5;" width="229.2227" x="406.39" y="190.2369"/><text fill="#000000" font-family="sans-serif" font-size="12" font-style="italic" lengthAdjust="spacing" textLength="127.8105" x="457.0961" y="206.3755">BaseCriticActorAgent</text><line style="stroke:#AAAAAA;stroke-width:0.5;" x1="407.39" x2="634.6127" y1="214.2056" y2="214.2056"/><line style="stroke:#AAAAAA;stroke-width:0.5;" x1="407.39" x2="634.6127" y1="222.2056" y2="222.2056"/><g data-visibility-modifier="PUBLIC_METHOD"><ellipse cx="417.39" cy="234.69" fill="#84BE84" rx="3" ry="3" style="stroke:#038048;stroke-width:1;"/></g><text fill="#000000" font-family="sans-serif" font-size="12" lengthAdjust="spacing" textLength="169.2773" x="425.39" y="237.3443">execute(payload: dict) : dict</text><g data-visibility-modifier="PUBLIC_METHOD"><ellipse cx="417.39" cy="248.6587" fill="#84BE84" rx="3" ry="3" style="stroke:#038048;stroke-width:1;"/></g><text fill="#000000" font-family="sans-serif" font-size="12" font-style="italic" lengthAdjust="spacing" textLength="82.1309" x="425.39" y="251.313">generate(ctx)</text><g data-visibility-modifier="PUBLIC_METHOD"><ellipse cx="417.39" cy="262.6275" fill="#84BE84" rx="3" ry="3" style="stroke:#038048;stroke-width:1;"/></g><text fill="#000000" font-family="sans-serif" font-size="12" font-style="italic" lengthAdjust="spacing" textLength="143.666" x="425.39" y="265.2818">critique(draft, ctx) : dict</text><g data-visibility-modifier="PUBLIC_METHOD"><ellipse cx="417.39" cy="276.5962" fill="#84BE84" rx="3" ry="3" style="stroke:#038048;stroke-width:1;"/></g><text fill="#000000" font-family="sans-serif" font-size="12" font-style="italic" lengthAdjust="spacing" textLength="161.8477" x="425.39" y="279.2505">refine(draft, feedback, ctx)</text><g data-visibility-modifier="PUBLIC_METHOD"><ellipse cx="417.39" cy="290.565" fill="#84BE84" rx="3" ry="3" style="stroke:#038048;stroke-width:1;"/></g><text fill="#000000" font-family="sans-serif" font-size="12" font-style="italic" lengthAdjust="spacing" textLength="204.2227" x="425.39" y="293.2193">should_accept(critique, ctx) : bool</text><g data-visibility-modifier="PUBLIC_METHOD"><ellipse cx="417.39" cy="304.5337" fill="#84BE84" rx="3" ry="3" style="stroke:#038048;stroke-width:1;"/></g><text fill="#000000" font-family="sans-serif" font-size="12" font-style="italic" lengthAdjust="spacing" textLength="182.9941" x="425.39" y="307.188">finalize(ctx) : CriticActorResult</text></g><!--class K9CriticActorAgent--><g class="entity" data-qualified-name="K9-AIF Framework .ABB . OOB..K9CriticActorAgent" data-source-line="36" id="ent0008"><rect fill="#FAFAFA" height="39.9688" rx="2.5" ry="2.5" style="stroke:#AAAAAA;stroke-width:0.5;" width="120.0938" x="515.95" y="389.0169"/><text fill="#000000" font-family="sans-serif" font-size="12" lengthAdjust="spacing" textLength="114.0938" x="518.95" y="405.1555">K9CriticActorAgent</text><line style="stroke:#AAAAAA;stroke-width:0.5;" x1="516.95" x2="635.0438" y1="412.9856" y2="412.9856"/><line style="stroke:#AAAAAA;stroke-width:0.5;" x1="516.95" x2="635.0438" y1="420.9856" y2="420.9856"/></g><!--class BaseSquad--><g class="entity" data-qualified-name="K9-AIF Framework .ABB . OOB..BaseSquad" data-source-line="39" id="ent0011"><rect fill="#FAFAFA" height="53.9375" rx="2.5" ry="2.5" style="stroke:#AAAAAA;stroke-width:0.5;" width="194.2773" x="250.86" y="75.2969"/><text fill="#000000" font-family="sans-serif" font-size="12" lengthAdjust="spacing" textLength="67.0313" x="314.483" y="91.4355">BaseSquad</text><line style="stroke:#AAAAAA;stroke-width:0.5;" x1="251.86" x2="444.1373" y1="99.2656" y2="99.2656"/><line style="stroke:#AAAAAA;stroke-width:0.5;" x1="251.86" x2="444.1373" y1="107.2656" y2="107.2656"/><g data-visibility-modifier="PUBLIC_METHOD"><ellipse cx="261.86" cy="119.75" fill="#84BE84" rx="3" ry="3" style="stroke:#038048;stroke-width:1;"/></g><text fill="#000000" font-family="sans-serif" font-size="12" lengthAdjust="spacing" textLength="169.2773" x="269.86" y="122.4043">execute(payload: dict) : dict</text></g><!--class BaseOrchestrator--><g class="entity" data-qualified-name="K9-AIF Framework .ABB . OOB..BaseOrchestrator" data-source-line="42" id="ent0012"><rect fill="#FAFAFA" height="53.9375" rx="2.5" ry="2.5" style="stroke:#AAAAAA;stroke-width:0.5;" width="224.9922" x="480.5" y="75.2969"/><text fill="#000000" font-family="sans-serif" font-size="12" font-style="italic" lengthAdjust="spacing" textLength="105.4102" x="540.291" y="91.4355">BaseOrchestrator</text><line style="stroke:#AAAAAA;stroke-width:0.5;" x1="481.5" x2="704.4922" y1="99.2656" y2="99.2656"/><line style="stroke:#AAAAAA;stroke-width:0.5;" x1="481.5" x2="704.4922" y1="107.2656" y2="107.2656"/><g data-visibility-modifier="PUBLIC_METHOD"><ellipse cx="491.5" cy="119.75" fill="#84BE84" rx="3" ry="3" style="stroke:#038048;stroke-width:1;"/></g><text fill="#000000" font-family="sans-serif" font-size="12" font-style="italic" lengthAdjust="spacing" textLength="199.9922" x="499.5" y="122.4043">execute_flow(payload: dict) : dict</text></g><!--class DocumentClassifierAgent--><g class="entity" data-qualified-name="DocumentIntelligence Agents.ExtractionSquad.DocumentClassifierAgent" data-source-line="49" id="ent0015"><rect fill="#FAFAFA" height="39.9688" rx="2.5" ry="2.5" style="stroke:#AAAAAA;stroke-width:0.5;" width="158.4668" x="567.77" y="549.9869"/><text fill="#000000" font-family="sans-serif" font-size="12" lengthAdjust="spacing" textLength="152.4668" x="570.77" y="566.1255">DocumentClassifierAgent</text><line style="stroke:#AAAAAA;stroke-width:0.5;" x1="568.77" x2="725.2368" y1="573.9556" y2="573.9556"/><line style="stroke:#AAAAAA;stroke-width:0.5;" x1="568.77" x2="725.2368" y1="581.9556" y2="581.9556"/></g><!--class DataExtractorAgent--><g class="entity" data-qualified-name="DocumentIntelligence Agents.ExtractionSquad.DataExtractorAgent" data-source-line="50" id="ent0016"><rect fill="#FAFAFA" height="39.9688" rx="2.5" ry="2.5" style="stroke:#AAAAAA;stroke-width:0.5;" width="125.4258" x="407.29" y="549.9869"/><text fill="#000000" font-family="sans-serif" font-size="12" lengthAdjust="spacing" textLength="119.4258" x="410.29" y="566.1255">DataExtractorAgent</text><line style="stroke:#AAAAAA;stroke-width:0.5;" x1="408.29" x2="531.7158" y1="573.9556" y2="573.9556"/><line style="stroke:#AAAAAA;stroke-width:0.5;" x1="408.29" x2="531.7158" y1="581.9556" y2="581.9556"/></g><!--class ExtractionSquad--><g class="entity" data-qualified-name="DocumentIntelligence Agents.ExtractionSquad.ExtractionSquad" data-source-line="51" id="ent0017"><rect fill="#FAFAFA" height="39.9688" rx="2.5" ry="2.5" style="stroke:#AAAAAA;stroke-width:0.5;" width="105.0703" x="761.46" y="549.9869"/><text fill="#000000" font-family="sans-serif" font-size="12" lengthAdjust="spacing" textLength="99.0703" x="764.46" y="566.1255">ExtractionSquad</text><line style="stroke:#AAAAAA;stroke-width:0.5;" x1="762.46" x2="865.5303" y1="573.9556" y2="573.9556"/><line style="stroke:#AAAAAA;stroke-width:0.5;" x1="762.46" x2="865.5303" y1="581.9556" y2="581.9556"/></g><!--class BusinessRuleAgent--><g class="entity" data-qualified-name="DocumentIntelligence Agents.ValidationSquad.BusinessRuleAgent" data-source-line="54" id="ent0019"><rect fill="#FAFAFA" height="39.9688" rx="2.5" ry="2.5" style="stroke:#AAAAAA;stroke-width:0.5;" width="121.0957" x="1119.45" y="549.9869"/><text fill="#000000" font-family="sans-serif" font-size="12" lengthAdjust="spacing" textLength="115.0957" x="1122.45" y="566.1255">BusinessRuleAgent</text><line style="stroke:#AAAAAA;stroke-width:0.5;" x1="1120.45" x2="1239.5457" y1="573.9556" y2="573.9556"/><line style="stroke:#AAAAAA;stroke-width:0.5;" x1="1120.45" x2="1239.5457" y1="581.9556" y2="581.9556"/></g><!--class ComplianceCheckerAgent--><g class="entity" data-qualified-name="DocumentIntelligence Agents.ValidationSquad.ComplianceCheckerAgent" data-source-line="55" id="ent0020"><rect fill="#FAFAFA" height="39.9688" rx="2.5" ry="2.5" style="stroke:#AAAAAA;stroke-width:0.5;" width="161.3848" x="923.31" y="549.9869"/><text fill="#000000" font-family="sans-serif" font-size="12" lengthAdjust="spacing" textLength="155.3848" x="926.31" y="566.1255">ComplianceCheckerAgent</text><line style="stroke:#AAAAAA;stroke-width:0.5;" x1="924.31" x2="1083.6948" y1="573.9556" y2="573.9556"/><line style="stroke:#AAAAAA;stroke-width:0.5;" x1="924.31" x2="1083.6948" y1="581.9556" y2="581.9556"/></g><!--class ValidationSquad--><g class="entity" data-qualified-name="DocumentIntelligence Agents.ValidationSquad.ValidationSquad" data-source-line="56" id="ent0021"><rect fill="#FAFAFA" height="39.9688" rx="2.5" ry="2.5" style="stroke:#AAAAAA;stroke-width:0.5;" width="103.998" x="1276" y="549.9869"/><text fill="#000000" font-family="sans-serif" font-size="12" lengthAdjust="spacing" textLength="97.998" x="1279" y="566.1255">ValidationSquad</text><line style="stroke:#AAAAAA;stroke-width:0.5;" x1="1277" x2="1378.998" y1="573.9556" y2="573.9556"/><line style="stroke:#AAAAAA;stroke-width:0.5;" x1="1277" x2="1378.998" y1="581.9556" y2="581.9556"/></g><!--class ExtractionOrchestrator--><g class="entity" data-qualified-name="DocumentIntelligence Orchestrators.ExtractionOrchestrator" data-source-line="73" id="ent0035"><rect fill="#FAFAFA" height="39.9688" rx="2.5" ry="2.5" style="stroke:#AAAAAA;stroke-width:0.5;" width="143.4492" x="813.28" y="232.1469"/><text fill="#000000" font-family="sans-serif" font-size="12" lengthAdjust="spacing" textLength="137.4492" x="816.28" y="248.2855">ExtractionOrchestrator</text><line style="stroke:#AAAAAA;stroke-width:0.5;" x1="814.28" x2="955.7292" y1="256.1156" y2="256.1156"/><line style="stroke:#AAAAAA;stroke-width:0.5;" x1="814.28" x2="955.7292" y1="264.1156" y2="264.1156"/></g><!--class ValidationOrchestrator--><g class="entity" data-qualified-name="DocumentIntelligence Orchestrators.ValidationOrchestrator" data-source-line="74" id="ent0036"><rect fill="#FAFAFA" height="39.9688" rx="2.5" ry="2.5" style="stroke:#AAAAAA;stroke-width:0.5;" width="142.377" x="991.81" y="232.1469"/><text fill="#000000" font-family="sans-serif" font-size="12" lengthAdjust="spacing" textLength="136.377" x="994.81" y="248.2855">ValidationOrchestrator</text><line style="stroke:#AAAAAA;stroke-width:0.5;" x1="992.81" x2="1133.187" y1="256.1156" y2="256.1156"/><line style="stroke:#AAAAAA;stroke-width:0.5;" x1="992.81" x2="1133.187" y1="264.1156" y2="264.1156"/></g><!--class ExtractionSquad--><g class="entity" data-qualified-name="ExtractionSquad" data-source-line="65" id="ent0026"><rect fill="#FAFAFA" height="39.9688" rx="2.5" ry="2.5" style="stroke:#AAAAAA;stroke-width:0.5;" width="105.0703" x="742.46" y="389.0169"/><text fill="#000000" font-family="sans-serif" font-size="12" lengthAdjust="spacing" textLength="99.0703" x="745.46" y="405.1555">ExtractionSquad</text><line style="stroke:#AAAAAA;stroke-width:0.5;" x1="743.46" x2="846.5303" y1="412.9856" y2="412.9856"/><line style="stroke:#AAAAAA;stroke-width:0.5;" x1="743.46" x2="846.5303" y1="420.9856" y2="420.9856"/></g><!--class ValidationSquad--><g class="entity" data-qualified-name="ValidationSquad" data-source-line="68" id="ent0030"><rect fill="#FAFAFA" height="39.9688" rx="2.5" ry="2.5" style="stroke:#AAAAAA;stroke-width:0.5;" width="103.998" x="1073" y="389.0169"/><text fill="#000000" font-family="sans-serif" font-size="12" lengthAdjust="spacing" textLength="97.998" x="1076" y="405.1555">ValidationSquad</text><line style="stroke:#AAAAAA;stroke-width:0.5;" x1="1074" x2="1175.998" y1="412.9856" y2="412.9856"/><line style="stroke:#AAAAAA;stroke-width:0.5;" x1="1074" x2="1175.998" y1="420.9856" y2="420.9856"/></g><!--reverse link BaseAgent to BaseValidationLoopAgent--><g class="link" data-entity-1="ent0002" data-entity-2="ent0003" data-link-type="extension" data-source-line="26" id="lnk5"><path codeLine="26" d="M141.3445,145.6243 C150.2045,162.4043 153.63,168.9269 164.72,189.9469" fill="none" id="BaseAgent-backto-BaseValidationLoopAgent" style="stroke:#555555;stroke-width:1;"/><polygon fill="none" points="132.94,129.7069,136.0387,148.4258,146.6503,142.8228,132.94,129.7069" style="stroke:#555555;stroke-width:1;stroke-linejoin:miter;stroke-miterlimit:10;"/></g><!--reverse link BaseValidationLoopAgent to K9ValidationLoopAgent--><g class="link" data-entity-1="ent0003" data-entity-2="ent0004" data-link-type="extension" data-source-line="27" id="lnk6"><path codeLine="27" d="M294.9004,324.988 C331.0704,351.538 356.36,370.1069 381.74,388.7269" fill="none" id="BaseValidationLoopAgent-backto-K9ValidationLoopAgent" style="stroke:#555555;stroke-width:1;"/><polygon fill="none" points="280.39,314.3369,291.3501,329.8248,298.4508,320.1512,280.39,314.3369" style="stroke:#555555;stroke-width:1;stroke-linejoin:miter;stroke-miterlimit:10;"/></g><!--reverse link BaseAgent to BaseCriticActorAgent--><g class="link" data-entity-1="ent0002" data-entity-2="ent0007" data-link-type="extension" data-source-line="37" id="lnk9"><path codeLine="37" d="M227.485,134.8918 C280.265,150.9018 330.39,167.3769 389,190.2369 C394.64,192.4369 400.39,194.7669 406.17,197.1669" fill="none" id="BaseAgent-backto-BaseCriticActorAgent" style="stroke:#555555;stroke-width:1;"/><polygon fill="none" points="210.26,129.6669,225.7433,140.6335,229.2266,129.1501,210.26,129.6669" style="stroke:#555555;stroke-width:1;stroke-linejoin:miter;stroke-miterlimit:10;"/></g><!--reverse link BaseCriticActorAgent to K9CriticActorAgent--><g class="link" data-entity-1="ent0007" data-entity-2="ent0008" data-link-type="extension" data-source-line="38" id="lnk10"><path codeLine="38" d="M548.7645,331.2988 C558.1945,357.8488 562.54,370.1069 569.15,388.7269" fill="none" id="BaseCriticActorAgent-backto-K9CriticActorAgent" style="stroke:#555555;stroke-width:1;"/><polygon fill="none" points="542.74,314.3369,543.1105,333.3069,554.4185,329.2906,542.74,314.3369" style="stroke:#555555;stroke-width:1;stroke-linejoin:miter;stroke-miterlimit:10;"/></g><!--reverse link BaseAgent to DocumentClassifierAgent--><g class="link" data-entity-1="ent0002" data-entity-2="ent0015" data-link-type="extension" data-source-line="60" id="lnk22"><path codeLine="60" d="M234.1694,129.6119 C326.8894,146.8819 591.11,119.0769 653,190.2369 C745.13,296.1769 679.42,488.8369 655.06,549.8869" fill="none" id="BaseAgent-backto-DocumentClassifierAgent" style="stroke:#555555;stroke-width:1;"/><polygon fill="none" points="216.53,126.0269,232.9744,135.4917,235.3644,123.7321,216.53,126.0269" style="stroke:#555555;stroke-width:1;stroke-linejoin:miter;stroke-miterlimit:10;"/></g><!--reverse link K9ValidationLoopAgent to DataExtractorAgent--><g class="link" data-entity-1="ent0004" data-entity-2="ent0016" data-link-type="extension" data-source-line="61" id="lnk23"><path codeLine="61" d="M422.021,445.9464 C433.941,476.5064 450.56,519.1269 462.49,549.7269" fill="none" id="K9ValidationLoopAgent-backto-DataExtractorAgent" style="stroke:#555555;stroke-width:1;"/><polygon fill="none" points="415.48,429.1769,416.4311,448.1267,427.6108,443.766,415.48,429.1769" style="stroke:#555555;stroke-width:1;stroke-linejoin:miter;stroke-miterlimit:10;"/></g><!--reverse link K9ValidationLoopAgent to BusinessRuleAgent--><g class="link" data-entity-1="ent0004" data-entity-2="ent0019" data-link-type="extension" data-source-line="62" id="lnk24"><path codeLine="62" d="M455.9487,437.9288 C472.5987,446.9188 477.8,448.1169 498,452.9869 C563.26,468.7369 1042.01,439.8369 1102,469.9869 C1135.82,486.9869 1159.55,526.2169 1171.38,549.8669" fill="none" id="K9ValidationLoopAgent-backto-BusinessRuleAgent" style="stroke:#555555;stroke-width:1;"/><polygon fill="none" points="440.11,429.3769,453.098,443.2084,458.7993,432.6493,440.11,429.3769" style="stroke:#555555;stroke-width:1;stroke-linejoin:miter;stroke-miterlimit:10;"/></g><!--reverse link K9CriticActorAgent to ComplianceCheckerAgent--><g class="link" data-entity-1="ent0008" data-entity-2="ent0020" data-link-type="extension" data-source-line="63" id="lnk25"><path codeLine="63" d="M651.7237,434.7313 C678.9537,443.1113 694.75,447.0469 725,452.9869 C794.3,466.6069 817.85,442.7169 883,469.9869 C926.06,488.0169 965.88,526.4969 987.38,549.8169" fill="none" id="K9CriticActorAgent-backto-ComplianceCheckerAgent" style="stroke:#555555;stroke-width:1;"/><polygon fill="none" points="634.52,429.4369,649.9589,440.4659,653.4886,428.9967,634.52,429.4369" style="stroke:#555555;stroke-width:1;stroke-linejoin:miter;stroke-miterlimit:10;"/></g><!--reverse link BaseSquad to ExtractionSquad--><g class="link" data-entity-1="ent0011" data-entity-2="ent0026" data-link-type="extension" data-source-line="65" id="lnk27"><path codeLine="65" d="M463.0919,129.4282 C518.6719,138.9882 671.47,123.3769 715,159.2369 C786.43,218.0869 794.82,341.1169 795.28,388.6669" fill="none" id="BaseSquad-backto-ExtractionSquad" style="stroke:#555555;stroke-width:1;"/><polygon fill="none" points="445.42,126.0069,461.9514,135.3188,464.2323,123.5376,445.42,126.0069" style="stroke:#555555;stroke-width:1;stroke-linejoin:miter;stroke-miterlimit:10;"/></g><!--reverse link ExtractionSquad to DocumentClassifierAgent--><g class="link" data-entity-1="ent0026" data-entity-2="ent0015" data-link-type="composition" data-source-line="66" id="lnk28"><path codeLine="66" d="M779.8749,439.9648 C773.9849,450.6448 771.34,452.9969 761,461.9869 C754.7,467.4669 750.81,465.1569 744,469.9869 C711.24,493.2569 679.95,528.2869 662.14,549.8369" fill="none" id="ExtractionSquad-backto-DocumentClassifierAgent" style="stroke:#555555;stroke-width:1;"/><polygon fill="#555555" points="785.67,429.4569,779.2698,432.7791,779.8749,439.9648,786.2751,436.6425,785.67,429.4569" style="stroke:#555555;stroke-width:1;stroke-linejoin:miter;stroke-miterlimit:10;"/></g><!--reverse link ExtractionSquad to DataExtractorAgent--><g class="link" data-entity-1="ent0026" data-entity-2="ent0016" data-link-type="composition" data-source-line="67" id="lnk29"><path codeLine="67" d="M758.1412,435.8197 C744.6312,444.5497 737.68,447.5969 721,452.9869 C648.33,476.4769 617.2,433.7069 550,469.9869 C516.56,488.0469 491.94,526.5169 479.39,549.8269" fill="none" id="ExtractionSquad-backto-DataExtractorAgent" style="stroke:#555555;stroke-width:1;"/><polygon fill="#555555" points="768.22,429.3069,761.0096,429.2037,758.1412,435.8197,765.3515,435.9229,768.22,429.3069" style="stroke:#555555;stroke-width:1;stroke-linejoin:miter;stroke-miterlimit:10;"/></g><!--reverse link BaseSquad to ValidationSquad--><g class="link" data-entity-1="ent0011" data-entity-2="ent0030" data-link-type="extension" data-source-line="68" id="lnk31"><path codeLine="68" d="M463.0837,129.5133 C538.7937,141.3733 1098.26,133.7069 1150,190.2369 C1201.13,246.1069 1157.66,346.7069 1135.77,388.7369" fill="none" id="BaseSquad-backto-ValidationSquad" style="stroke:#555555;stroke-width:1;"/><polygon fill="none" points="445.39,126.2069,461.9816,135.4112,464.1859,123.6154,445.39,126.2069" style="stroke:#555555;stroke-width:1;stroke-linejoin:miter;stroke-miterlimit:10;"/></g><!--reverse link ValidationSquad to BusinessRuleAgent--><g class="link" data-entity-1="ent0030" data-entity-2="ent0019" data-link-type="composition" data-source-line="69" id="lnk32"><path codeLine="69" d="M1135.5558,440.5165 C1146.1358,471.0765 1162.76,519.1269 1173.34,549.7269" fill="none" id="ValidationSquad-backto-BusinessRuleAgent" style="stroke:#555555;stroke-width:1;"/><polygon fill="#555555" points="1131.63,429.1769,1129.813,436.1553,1135.5558,440.5165,1137.3728,433.5381,1131.63,429.1769" style="stroke:#555555;stroke-width:1;stroke-linejoin:miter;stroke-miterlimit:10;"/></g><!--reverse link ValidationSquad to ComplianceCheckerAgent--><g class="link" data-entity-1="ent0030" data-entity-2="ent0020" data-link-type="composition" data-source-line="70" id="lnk33"><path codeLine="70" d="M1103.1342,438.7271 C1079.8842,469.2871 1041.94,519.1269 1018.65,549.7269" fill="none" id="ValidationSquad-backto-ComplianceCheckerAgent" style="stroke:#555555;stroke-width:1;"/><polygon fill="#555555" points="1110.4,429.1769,1103.5837,431.5301,1103.1342,438.7271,1109.9505,436.374,1110.4,429.1769" style="stroke:#555555;stroke-width:1;stroke-linejoin:miter;stroke-miterlimit:10;"/></g><!--reverse link BaseOrchestrator to ExtractionOrchestrator--><g class="link" data-entity-1="ent0012" data-entity-2="ent0035" data-link-type="extension" data-source-line="77" id="lnk37"><path codeLine="77" d="M723.038,131.6053 C750.308,139.7453 761.41,145.3169 786,159.2369 C819.67,178.3069 851.06,210.9669 869.13,231.7769" fill="none" id="BaseOrchestrator-backto-ExtractionOrchestrator" style="stroke:#555555;stroke-width:1;"/><polygon fill="none" points="705.79,126.4569,721.3218,137.3547,724.7541,125.856,705.79,126.4569" style="stroke:#555555;stroke-width:1;stroke-linejoin:miter;stroke-miterlimit:10;"/></g><!--link ExtractionOrchestrator to ExtractionSquad--><g class="link" data-entity-1="ent0035" data-entity-2="ent0026" data-link-type="dependency" data-source-line="78" id="lnk38"><path codeLine="78" d="M873.78,272.4269 C856.44,302.2669 825.8418,354.9336 808.5918,384.6236" fill="none" id="ExtractionOrchestrator-to-ExtractionSquad" style="stroke:#555555;stroke-width:1;stroke-dasharray:7,7;"/><polygon fill="#555555" points="806.08,388.9469,814.0599,383.1745,808.5918,384.6236,807.1427,379.1555,806.08,388.9469" style="stroke:#555555;stroke-width:1;stroke-linejoin:miter;stroke-miterlimit:10;"/><text fill="#000000" font-family="sans-serif" font-size="12" lengthAdjust="spacing" textLength="31.8984" x="832" y="356.1555">loads</text></g><!--reverse link BaseOrchestrator to ValidationOrchestrator--><g class="link" data-entity-1="ent0012" data-entity-2="ent0036" data-link-type="extension" data-source-line="79" id="lnk39"><path codeLine="79" d="M723.4678,120.4986 C801.2178,133.1086 887.9,152.5869 974,190.2369 C998.19,200.8169 1022.73,218.2069 1039.9,231.7069" fill="none" id="BaseOrchestrator-backto-ValidationOrchestrator" style="stroke:#555555;stroke-width:1;"/><polygon fill="none" points="705.7,117.6169,722.5073,126.4212,724.4284,114.576,705.7,117.6169" style="stroke:#555555;stroke-width:1;stroke-linejoin:miter;stroke-miterlimit:10;"/></g><!--link ValidationOrchestrator to ValidationSquad--><g class="link" data-entity-1="ent0036" data-entity-2="ent0030" data-link-type="dependency" data-source-line="80" id="lnk40"><path codeLine="80" d="M1070.73,272.4269 C1082.67,302.2669 1103.6212,354.6152 1115.5112,384.3052" fill="none" id="ValidationOrchestrator-to-ValidationSquad" style="stroke:#555555;stroke-width:1;stroke-dasharray:7,7;"/><polygon fill="#555555" points="1117.37,388.9469,1117.7374,379.1049,1115.5112,384.3052,1110.3108,382.079,1117.37,388.9469" style="stroke:#555555;stroke-width:1;stroke-linejoin:miter;stroke-miterlimit:10;"/><text fill="#000000" font-family="sans-serif" font-size="12" lengthAdjust="spacing" textLength="31.8984" x="1105" y="356.1555">loads</text></g><g class="legend" data-source-line="82"><rect fill="#DDDDDD" height="79.1875" rx="7.5" ry="7.5" style="stroke:#000000;stroke-width:1;" width="248.0137" x="1167.9863" y="650.9569"/><text fill="#000000" font-family="sans-serif" font-size="14" font-weight="700" lengthAdjust="spacing" textLength="68.5508" x="1177.8604" y="670.952">Notation</text><text fill="#000000" font-family="sans-serif" font-size="14" font-weight="700" lengthAdjust="spacing" textLength="67.6279" x="1256.1592" y="670.952">Meaning</text><text fill="#000000" font-family="sans-serif" font-size="14" lengthAdjust="spacing" textLength="27.624" x="1177.4365" y="687.2489">&#9472;&#9472;&#9655;</text><text fill="#000000" font-family="sans-serif" font-size="14" lengthAdjust="spacing" textLength="150.8145" x="1255.7354" y="687.2489">Inheritance (extends)</text><text fill="#000000" font-family="sans-serif" font-size="14" lengthAdjust="spacing" textLength="27.624" x="1177.4365" y="703.5457">&#9472;&#9472;&#9670;</text><text fill="#000000" font-family="sans-serif" font-size="14" lengthAdjust="spacing" textLength="138.9883" x="1255.7354" y="703.5457">Composition (owns)</text><text fill="#000000" font-family="sans-serif" font-size="14" lengthAdjust="spacing" textLength="28.5879" x="1177.4365" y="719.8426">&#9548;&#9548;&gt;</text><text fill="#000000" font-family="sans-serif" font-size="14" lengthAdjust="spacing" textLength="135.5703" x="1255.7354" y="719.8426">Dependency (uses)</text><line style="stroke:#000000;stroke-width:1;" x1="1172.9863" x2="1411" y1="657.9569" y2="657.9569"/><line style="stroke:#000000;stroke-width:1;" x1="1172.9863" x2="1411" y1="674.2538" y2="674.2538"/><line style="stroke:#000000;stroke-width:1;" x1="1172.9863" x2="1411" y1="690.5506" y2="690.5506"/><line style="stroke:#000000;stroke-width:1;" x1="1172.9863" x2="1411" y1="706.8475" y2="706.8475"/><line style="stroke:#000000;stroke-width:1;" x1="1172.9863" x2="1411" y1="723.1444" y2="723.1444"/><line style="stroke:#000000;stroke-width:1;" x1="1172.9863" x2="1172.9863" y1="657.9569" y2="723.1444"/><line style="stroke:#000000;stroke-width:1;" x1="1251.2852" x2="1251.2852" y1="657.9569" y2="723.1444"/><line style="stroke:#000000;stroke-width:1;" x1="1411" x2="1411" y1="657.9569" y2="723.1444"/></g><?plantuml-src hLRRRjD047ttLupI1nmWGI1L40ILSgbHLQ2ebNYDDkj9iehZTNVND6bJYIUUUEJoAVmFNyBuaiInruO7d4XnTi-ScJbdria3U8CXAcRGXyaQ5hqLN9dO5xARt7UPS1oz467455i23vZM0yONCoNZq1_AG2euylh9gmAJoaULG_hfLO3qbP8t-UPnUXKsFr06DiC3Xc5wMK2LQewzvvvN0FeuPN5WF1cQAt6ByFIPCnS-0XUA1-WuHfW0OIHvlCJGd8K6Wq3CCEG87HWchS18i1bHEKwK9ONMUQ_JF_F0erMyaMe1RdymW2TmSJ5ej-3ez8LtVDg3EmU0JRHHZ9jC5HWmZNrYD-acm2EusoBk0LV8OuDknDQ1PFvBy0KtRSW-2Nvlv_l80k4p8sJuLiheaFrlbAKAPlamZEVhI9evQg7TW4Z7tApQLRYAm_6dNNPt7_GO6gAGGk8aYPneL9-oM8MQN6gCqtCP1_wOavCYZD6by0AUUjeBCH8wabeajrMUgGW9U8kkFJOHyJAj9fSyK_gyPz6PTlUEljfqEdM6v42RLMbO7Rl5xg6YldYV6wd-YzUkNMsUfBaccNt5fcHChfETIo69keDE4Vq97PKigDP8nZb6njqcsgMOI1aqk9QZ2Z9OtIhBPBUg1bNHE3V90jyRStKTC_-VtQWvp1UAqmcYLKhHy8mOJmDvqy1zNtXOMPzjQVcwbQRO8KzNQHQQmRINLbv0LjsM9dqcYgd0dGGx13Cifv2LpH9thi0kzNxyBQa7iQRnqleo3h3CEvJBA12CUXhEaI-gLPMOj_AKXg6kE-l1p4EgxJQWgprKnob3rdJax6SiXPK5BNs7XmrTMR7LTaePoqgMlgSirJPjgBeMcsUsU3RoqItFLX7YL2VWO3iVWeCJLrBs06zVXcxtfEm5dSJaNEeQ_ffwxCifVrd3BRyJ84b3VzsaCN89IipcnjcyXlVIf6YW-tV8GX7EOEDiuFUtpydxno_Om5auHvg_n0HmSMM8HxUBg9zV29KubV-IWYjlmYta-rTwdn1WX155aZzhS6EDwJujP8Nz0G00?></g></svg>